<?xml version="1.0" encoding="utf-8"?>
<!-- Generator: Adobe Illustrator 23.1.0, SVG Export Plug-In . SVG Version: 6.00 Build 0)  -->
<svg version="1.1" id="Layer_1" xmlns="http://www.w3.org/2000/svg" xmlns:xlink="http://www.w3.org/1999/xlink" x="0px" y="0px"
	 viewBox="0 0 1728 238" style="enable-background:new 0 0 1728 238;" xml:space="preserve">
<style type="text/css">
	.st0{fill:#FFFFFF;}
</style>
<g>
	<path class="st0" d="M133,63.4c-2.4-3.5-7.6-5.9-14.9-5.9c-27.7,0-56.7,31.7-56.7,72.6c0,31.2,17,50.6,46.6,50.6
		c28.6,0,58.6-18.4,75.9-53.2c5.9,0.2,14.2,4.7,17,8.3c-20.3,44.9-56.2,82-108.7,82c-49.2,0-80.6-32.6-80.6-82.7
		C11.6,79,51,20.8,113.9,20.8c44.4,0,64.3,28.8,64.3,54.4c0,20.3-12.5,36.2-30.5,36.2c-15.4,0-26.7-11.6-26.7-26
		C121,76.1,125.7,68.1,133,63.4z"/>
	<path class="st0" d="M212.7,31.9h44l-15.8,51.8c9-8.3,18-12.3,28.8-12.3c27.4,0,36.2,25.8,27.6,53.4l-10.2,33.1
		c-1.9,6.4-2.1,11.1,2.6,11.1c8.3,0,20.6-15.4,33.6-41.6c5.9,0.2,14.2,4.7,17,8.3c-17.3,38-40.4,64-69.2,64
		c-30.3,0-31.9-28.8-25.1-51.3l6.9-22.5c3.1-10.2,2.4-18-6.6-18c-6.4,0-11.1,4-15.6,8.7l-24.6,80.6h-44L212.7,31.9z"/>
	<path class="st0" d="M465.1,135.7c-17.3,38-45.1,64.8-87.7,64.8c-37.8,0-61.4-21-61.4-54.8c0-36.6,27.7-74.2,70-74.2
		c28.8,0,47.5,17.5,47.5,38.1s-18.7,46.8-67.4,47.5c4.3,8.5,13,13.2,25.5,13.2c19.6,0,41.4-12.3,56.5-42.8
		C454,127.6,462.2,132.1,465.1,135.7z M363.2,136.6c21-1.4,30.5-11.3,30.5-19.6c0-4.3-2.4-8.3-8.5-8.3
		C374.6,108.7,364.9,120.8,363.2,136.6z"/>
	<path class="st0" d="M589.8,135.7c-17.3,38-45.1,64.8-87.7,64.8c-37.8,0-61.4-21-61.4-54.8c0-36.6,27.7-74.2,70-74.2
		c28.8,0,47.5,17.5,47.5,38.1s-18.7,46.8-67.4,47.5c4.3,8.5,13,13.2,25.5,13.2c19.6,0,41.4-12.3,56.5-42.8
		C578.7,127.6,587,132.1,589.8,135.7z M488,136.6c21-1.4,30.5-11.3,30.5-19.6c0-4.3-2.4-8.3-8.5-8.3
		C499.3,108.7,489.6,120.8,488,136.6z"/>
	<path class="st0" d="M551.5,150.1c0-14.2,9.2-26.5,24.1-26.5c0.7,0,0.7,0,1.9,0.2c8.7-16.3,18.9-41.1,24.6-60.5l35.2,7.8
		c8.3,31.4,27.6,52,27.6,81.8c0,4.5-0.5,9-1.4,13.2c10.9-9,18.4-21.7,26.9-38.8c5.9,0.2,14.2,4.7,17,8.3
		c-17.3,38-40.9,64.8-92.4,64.8C577.5,200.4,551.5,175.6,551.5,150.1z M606.1,106.6c-3.5,9-7.6,17.7-11.8,26
		c3.3,4.3,5.4,9.5,5.4,15.1c0,7.3-3.3,13.7-8.5,18.2c2.8,3.8,7.3,5.9,12.8,5.9c9.2,0,15.8-6.9,15.8-19.6
		C619.8,138.3,611.8,123.1,606.1,106.6z"/>
	<path class="st0" d="M832.3,135.7c-17.3,38-45.1,64.8-87.7,64.8c-37.8,0-61.5-21-61.5-54.8c0-36.6,27.7-74.2,70-74.2
		c28.8,0,47.5,17.5,47.5,38.1s-18.7,46.8-67.3,47.5c4.3,8.5,13,13.2,25.5,13.2c19.6,0,41.4-12.3,56.5-42.8
		C821.2,127.6,829.5,132.1,832.3,135.7z M730.4,136.6c21-1.4,30.5-11.3,30.5-19.6c0-4.3-2.4-8.3-8.5-8.3
		C741.8,108.7,732.1,120.8,730.4,136.6z"/>
	<path class="st0" d="M948.6,52.5c-22.2,6.9-29.3,22.7-29.3,36.9c0,8.7,2.6,17,5.2,22.9l-31.7,25.5c-11.6-12.3-16.5-29.1-16.5-44.2
		c0-40.9,37.1-76.1,103-76.1c61.4,0,96.4,30.7,96.4,69.7c0,35.4-28.8,73.3-76.3,73.3c-12.8,0-24.8-2.6-35.9-8l-13.7,44.9h-45.4
		L948.6,52.5z M994.6,50.6l-22.5,73.5c5,1.7,10.2,2.1,14.9,2.1c27.7,0,40.9-21,40.9-40.6C1028,68.8,1018,55.3,994.6,50.6z"/>
	<path class="st0" d="M1216.3,73.8l-25.8,84.1c-1.9,6.4-2.1,11.1,2.6,11.1c8.3,0,20.6-15.4,33.6-41.6c5.9,0.2,14.2,4.7,17,8.3
		c-17.3,38-40.4,64-69.2,64c-15.4,0-23.4-7.6-26.7-17.7c-10.4,10.9-23.6,17.7-37.8,17.7c-24.3,0-40.7-16.1-40.7-44.4
		c0-40.6,29.5-83.9,67.6-83.9c13.5,0,24.3,6.1,30.7,17.7l4.7-15.4h44V73.8z M1141.9,112c-11.6,0-25.5,19.9-25.5,36.4
		c0,9.2,4.5,14.7,12.1,14.7c12,0,26-19.9,26-36.4C1154.4,117.7,1149.2,112,1141.9,112z"/>
	<path class="st0" d="M1299.7,31.9l-38.3,124.5c-2.6,8.7,0,12.5,5.9,12.5c11.3,0,22.9-15.4,35.9-41.6c5.9,0.2,14.2,4.7,17,8.3
		c-17.3,38-39.7,64-70.4,64c-28.8,0-39-22.2-29.3-53.4l35.2-114.4h44V31.9z"/>
	<path class="st0" d="M1441,73.8l-25.8,84.1c-1.9,6.4-2.1,11.1,2.6,11.1c8.3,0,20.6-15.4,33.6-41.6c5.9,0.2,14.2,4.7,17,8.3
		c-17.3,38-40.4,64-69.2,64c-15.4,0-23.4-7.6-26.7-17.7c-10.4,10.9-23.6,17.7-37.8,17.7c-24.3,0-40.6-16.1-40.6-44.4
		c0-40.6,29.5-83.9,67.6-83.9c13.5,0,24.3,6.1,30.7,17.7l4.7-15.4h43.9V73.8z M1366.6,112c-11.6,0-25.5,19.9-25.5,36.4
		c0,9.2,4.5,14.7,12.1,14.7c12.1,0,26-19.9,26-36.4C1379.1,117.7,1373.9,112,1366.6,112z"/>
	<path class="st0" d="M1515.5,103.8c-11.8,2.6-24.3,19.1-24.3,38.1c0,17,9.9,28.4,28.6,28.4c19.4,0,41.4-12.3,56.5-42.8
		c5.9,0.2,14.2,4.7,17,8.3c-17.3,38-45.1,64.8-87.7,64.8c-37.8,0-61.4-21-61.4-54.6c0-35.9,27.2-74.4,71.6-74.4
		c31.9,0,47,21,47,40.2c0,14.9-10.2,29.1-26.9,29.1c-13.2,0-23.9-10.6-23.9-23.9C1511.9,112,1513.1,107.6,1515.5,103.8z"/>
	<path class="st0" d="M1718,135.7c-17.3,38-45.1,64.8-87.7,64.8c-37.8,0-61.5-21-61.5-54.8c0-36.6,27.7-74.2,70-74.2
		c28.8,0,47.5,17.5,47.5,38.1s-18.7,46.8-67.3,47.5c4.3,8.5,13,13.2,25.5,13.2c19.6,0,41.4-12.3,56.5-42.8
		C1706.9,127.6,1715.2,132.1,1718,135.7z M1616.1,136.6c21-1.4,30.5-11.3,30.5-19.6c0-4.3-2.4-8.3-8.5-8.3
		C1627.5,108.7,1617.8,120.8,1616.1,136.6z"/>
</g>
</svg>
